<svg width="200" height="300" viewBox="0 0 200 300" fill="none" xmlns="http://www.w3.org/2000/svg">
<rect x="0.5" y="0.5" width="199" height="299" fill="white" stroke="black"/>
<path d="M118.081 115.496C118.081 125.95 109.609 134.425 99.1549 134.425C88.7012 134.425 80.2264 125.95 80.2264 115.496C80.2264 105.045 88.7012 96.5703 99.1549 96.5703C109.609 96.5703 118.081 105.045 118.081 115.496Z" stroke="black" stroke-width="5" stroke-miterlimit="10" stroke-linecap="round" stroke-linejoin="round"/>
<path d="M103.785 140.605C122.449 142.501 137.018 158.262 137.018 177.43" stroke="black" stroke-width="5" stroke-miterlimit="10" stroke-linecap="round" stroke-linejoin="round"/>
<path d="M62.9816 177.43C62.9816 158.61 77.0295 143.068 95.2135 140.719" stroke="black" stroke-width="5" stroke-miterlimit="10" stroke-linecap="round" stroke-linejoin="round"/>
<path d="M48.5795 201.21V200.273H55.125V201.21H52.3807V209H51.3239V201.21H48.5795ZM57.6254 205.062V209H56.6197V200.273H57.6254V203.477H57.7106C57.864 203.139 58.0941 202.871 58.4009 202.672C58.7106 202.47 59.1225 202.369 59.6367 202.369C60.0827 202.369 60.4734 202.459 60.8086 202.638C61.1438 202.814 61.4038 203.085 61.5884 203.452C61.7759 203.815 61.8697 204.278 61.8697 204.841V209H60.864V204.909C60.864 204.389 60.729 203.987 60.4592 203.703C60.1921 203.416 59.8214 203.273 59.3469 203.273C59.0174 203.273 58.7219 203.342 58.4606 203.482C58.2021 203.621 57.9975 203.824 57.8469 204.091C57.6992 204.358 57.6254 204.682 57.6254 205.062ZM66.4538 209.136C65.8232 209.136 65.2791 208.997 64.8217 208.719C64.3672 208.438 64.0163 208.045 63.7692 207.543C63.5249 207.037 63.4027 206.449 63.4027 205.778C63.4027 205.108 63.5249 204.517 63.7692 204.006C64.0163 203.491 64.3601 203.091 64.8004 202.804C65.2436 202.514 65.7607 202.369 66.3516 202.369C66.6925 202.369 67.0291 202.426 67.3615 202.54C67.6939 202.653 67.9964 202.838 68.2692 203.094C68.5419 203.347 68.7592 203.682 68.9212 204.099C69.0831 204.517 69.1641 205.031 69.1641 205.642V206.068H64.1186V205.199H68.1413C68.1413 204.83 68.0675 204.5 67.9197 204.21C67.7749 203.92 67.5675 203.692 67.2976 203.524C67.0305 203.357 66.7152 203.273 66.3516 203.273C65.951 203.273 65.6044 203.372 65.3118 203.571C65.022 203.767 64.799 204.023 64.6428 204.338C64.4865 204.653 64.4084 204.991 64.4084 205.352V205.932C64.4084 206.426 64.4936 206.845 64.6641 207.189C64.8374 207.53 65.0774 207.79 65.3842 207.969C65.6911 208.145 66.0476 208.233 66.4538 208.233C66.718 208.233 66.9567 208.196 67.1697 208.122C67.3857 208.045 67.5717 207.932 67.728 207.781C67.8842 207.628 68.005 207.437 68.0902 207.21L69.0618 207.483C68.9595 207.812 68.7876 208.102 68.5462 208.352C68.3047 208.599 68.0064 208.793 67.6513 208.932C67.2962 209.068 66.897 209.136 66.4538 209.136ZM70.6939 209V202.455H71.6655V203.443H71.7337C71.853 203.119 72.0689 202.857 72.3814 202.655C72.6939 202.453 73.0462 202.352 73.4382 202.352C73.5121 202.352 73.6044 202.354 73.7152 202.357C73.826 202.359 73.9098 202.364 73.9666 202.369V203.392C73.9325 203.384 73.8544 203.371 73.7322 203.354C73.6129 203.334 73.4865 203.324 73.353 203.324C73.0348 203.324 72.7507 203.391 72.5007 203.524C72.2536 203.655 72.0575 203.837 71.9126 204.07C71.7706 204.3 71.6996 204.562 71.6996 204.858V209H70.6939ZM77.7038 209.136C77.0732 209.136 76.5291 208.997 76.0717 208.719C75.6172 208.438 75.2663 208.045 75.0192 207.543C74.7749 207.037 74.6527 206.449 74.6527 205.778C74.6527 205.108 74.7749 204.517 75.0192 204.006C75.2663 203.491 75.6101 203.091 76.0504 202.804C76.4936 202.514 77.0107 202.369 77.6016 202.369C77.9425 202.369 78.2791 202.426 78.6115 202.54C78.9439 202.653 79.2464 202.838 79.5192 203.094C79.7919 203.347 80.0092 203.682 80.1712 204.099C80.3331 204.517 80.4141 205.031 80.4141 205.642V206.068H75.3686V205.199H79.3913C79.3913 204.83 79.3175 204.5 79.1697 204.21C79.0249 203.92 78.8175 203.692 78.5476 203.524C78.2805 203.357 77.9652 203.273 77.6016 203.273C77.201 203.273 76.8544 203.372 76.5618 203.571C76.272 203.767 76.049 204.023 75.8928 204.338C75.7365 204.653 75.6584 204.991 75.6584 205.352V205.932C75.6584 206.426 75.7436 206.845 75.9141 207.189C76.0874 207.53 76.3274 207.79 76.6342 207.969C76.9411 208.145 77.2976 208.233 77.7038 208.233C77.968 208.233 78.2067 208.196 78.4197 208.122C78.6357 208.045 78.8217 207.932 78.978 207.781C79.1342 207.628 79.255 207.437 79.3402 207.21L80.3118 207.483C80.2095 207.812 80.0376 208.102 79.7962 208.352C79.5547 208.599 79.2564 208.793 78.9013 208.932C78.5462 209.068 78.147 209.136 77.7038 209.136ZM85.3189 209V202.455H86.3246V209H85.3189ZM85.8303 201.364C85.6342 201.364 85.4652 201.297 85.3232 201.163C85.1839 201.03 85.1143 200.869 85.1143 200.682C85.1143 200.494 85.1839 200.334 85.3232 200.2C85.4652 200.067 85.6342 200 85.8303 200C86.0263 200 86.1939 200.067 86.3331 200.2C86.4751 200.334 86.5462 200.494 86.5462 200.682C86.5462 200.869 86.4751 201.03 86.3331 201.163C86.1939 201.297 86.0263 201.364 85.8303 201.364ZM92.8029 203.92L91.8995 204.176C91.8427 204.026 91.7589 203.879 91.6481 203.737C91.5401 203.592 91.3924 203.473 91.2049 203.379C91.0174 203.286 90.7773 203.239 90.4847 203.239C90.0842 203.239 89.7504 203.331 89.4833 203.516C89.2191 203.697 89.087 203.929 89.087 204.21C89.087 204.46 89.1779 204.658 89.3597 204.803C89.5415 204.947 89.8256 205.068 90.212 205.165L91.1836 205.403C91.7688 205.545 92.2049 205.763 92.4918 206.055C92.7788 206.345 92.9222 206.719 92.9222 207.176C92.9222 207.551 92.8143 207.886 92.5984 208.182C92.3853 208.477 92.087 208.71 91.7035 208.881C91.32 209.051 90.8739 209.136 90.3654 209.136C89.6978 209.136 89.1452 208.991 88.7077 208.702C88.2702 208.412 87.9933 207.989 87.8768 207.432L88.8313 207.193C88.9222 207.545 89.0941 207.81 89.3469 207.986C89.6026 208.162 89.9364 208.25 90.3484 208.25C90.8171 208.25 91.1893 208.151 91.4648 207.952C91.7433 207.75 91.8825 207.509 91.8825 207.227C91.8825 207 91.8029 206.81 91.6438 206.656C91.4847 206.5 91.2404 206.384 90.9109 206.307L89.82 206.051C89.2205 205.909 88.7802 205.689 88.4989 205.391C88.2205 205.089 88.0813 204.713 88.0813 204.261C88.0813 203.892 88.185 203.565 88.3924 203.281C88.6026 202.997 88.8881 202.774 89.2489 202.612C89.6126 202.45 90.0245 202.369 90.4847 202.369C91.1325 202.369 91.641 202.511 92.0103 202.795C92.3825 203.08 92.6467 203.455 92.8029 203.92ZM98.8168 205.062V209H97.8111V202.455H98.7827V203.477H98.8679C99.0213 203.145 99.2543 202.878 99.5668 202.676C99.8793 202.472 100.283 202.369 100.777 202.369C101.22 202.369 101.608 202.46 101.94 202.642C102.273 202.821 102.531 203.094 102.716 203.46C102.901 203.824 102.993 204.284 102.993 204.841V209H101.987V204.909C101.987 204.395 101.854 203.994 101.587 203.707C101.32 203.418 100.953 203.273 100.487 203.273C100.166 203.273 99.8793 203.342 99.6264 203.482C99.3764 203.621 99.179 203.824 99.0341 204.091C98.8892 204.358 98.8168 204.682 98.8168 205.062ZM107.49 209.136C106.899 209.136 106.38 208.996 105.934 208.714C105.491 208.433 105.145 208.04 104.895 207.534C104.647 207.028 104.524 206.437 104.524 205.761C104.524 205.08 104.647 204.484 104.895 203.976C105.145 203.467 105.491 203.072 105.934 202.791C106.38 202.51 106.899 202.369 107.49 202.369C108.081 202.369 108.598 202.51 109.041 202.791C109.487 203.072 109.833 203.467 110.081 203.976C110.331 204.484 110.456 205.08 110.456 205.761C110.456 206.437 110.331 207.028 110.081 207.534C109.833 208.04 109.487 208.433 109.041 208.714C108.598 208.996 108.081 209.136 107.49 209.136ZM107.49 208.233C107.939 208.233 108.308 208.118 108.598 207.888C108.887 207.658 109.102 207.355 109.241 206.98C109.38 206.605 109.45 206.199 109.45 205.761C109.45 205.324 109.38 204.916 109.241 204.538C109.102 204.161 108.887 203.855 108.598 203.622C108.308 203.389 107.939 203.273 107.49 203.273C107.041 203.273 106.672 203.389 106.382 203.622C106.092 203.855 105.877 204.161 105.738 204.538C105.599 204.916 105.529 205.324 105.529 205.761C105.529 206.199 105.599 206.605 105.738 206.98C105.877 207.355 106.092 207.658 106.382 207.888C106.672 208.118 107.041 208.233 107.49 208.233ZM115.366 211.455V202.455H116.337V203.494H116.457C116.531 203.381 116.633 203.236 116.763 203.06C116.897 202.881 117.087 202.722 117.335 202.582C117.585 202.44 117.923 202.369 118.349 202.369C118.9 202.369 119.386 202.507 119.806 202.783C120.227 203.058 120.555 203.449 120.79 203.955C121.026 204.46 121.144 205.057 121.144 205.744C121.144 206.438 121.026 207.038 120.79 207.547C120.555 208.053 120.228 208.445 119.81 208.723C119.393 208.999 118.911 209.136 118.366 209.136C117.945 209.136 117.609 209.067 117.356 208.928C117.103 208.786 116.908 208.625 116.772 208.446C116.636 208.264 116.531 208.114 116.457 207.994H116.371V211.455H115.366ZM116.354 205.727C116.354 206.222 116.427 206.658 116.572 207.036C116.717 207.411 116.928 207.705 117.207 207.918C117.485 208.128 117.826 208.233 118.229 208.233C118.65 208.233 119.001 208.122 119.282 207.901C119.566 207.676 119.779 207.375 119.921 206.997C120.066 206.616 120.138 206.193 120.138 205.727C120.138 205.267 120.067 204.852 119.925 204.483C119.786 204.111 119.575 203.817 119.29 203.601C119.009 203.382 118.656 203.273 118.229 203.273C117.82 203.273 117.477 203.376 117.198 203.584C116.92 203.788 116.71 204.075 116.567 204.445C116.425 204.811 116.354 205.239 116.354 205.727ZM123.684 205.062V209H122.678V200.273H123.684V203.477H123.769C123.923 203.139 124.153 202.871 124.46 202.672C124.769 202.47 125.181 202.369 125.695 202.369C126.141 202.369 126.532 202.459 126.867 202.638C127.202 202.814 127.462 203.085 127.647 203.452C127.835 203.815 127.928 204.278 127.928 204.841V209H126.923V204.909C126.923 204.389 126.788 203.987 126.518 203.703C126.251 203.416 125.88 203.273 125.406 203.273C125.076 203.273 124.781 203.342 124.519 203.482C124.261 203.621 124.056 203.824 123.906 204.091C123.758 204.358 123.684 204.682 123.684 205.062ZM132.427 209.136C131.836 209.136 131.318 208.996 130.872 208.714C130.429 208.433 130.082 208.04 129.832 207.534C129.585 207.028 129.461 206.437 129.461 205.761C129.461 205.08 129.585 204.484 129.832 203.976C130.082 203.467 130.429 203.072 130.872 202.791C131.318 202.51 131.836 202.369 132.427 202.369C133.018 202.369 133.535 202.51 133.978 202.791C134.424 203.072 134.771 203.467 135.018 203.976C135.268 204.484 135.393 205.08 135.393 205.761C135.393 206.437 135.268 207.028 135.018 207.534C134.771 208.04 134.424 208.433 133.978 208.714C133.535 208.996 133.018 209.136 132.427 209.136ZM132.427 208.233C132.876 208.233 133.245 208.118 133.535 207.888C133.825 207.658 134.039 207.355 134.179 206.98C134.318 206.605 134.387 206.199 134.387 205.761C134.387 205.324 134.318 204.916 134.179 204.538C134.039 204.161 133.825 203.855 133.535 203.622C133.245 203.389 132.876 203.273 132.427 203.273C131.978 203.273 131.609 203.389 131.319 203.622C131.029 203.855 130.815 204.161 130.676 204.538C130.537 204.916 130.467 205.324 130.467 205.761C130.467 206.199 130.537 206.605 130.676 206.98C130.815 207.355 131.029 207.658 131.319 207.888C131.609 208.118 131.978 208.233 132.427 208.233ZM139.775 202.455V203.307H136.383V202.455H139.775ZM137.371 200.886H138.377V207.125C138.377 207.409 138.418 207.622 138.501 207.764C138.586 207.903 138.694 207.997 138.825 208.045C138.958 208.091 139.099 208.114 139.246 208.114C139.357 208.114 139.448 208.108 139.519 208.097C139.59 208.082 139.647 208.071 139.69 208.062L139.894 208.966C139.826 208.991 139.731 209.017 139.609 209.043C139.487 209.071 139.332 209.085 139.144 209.085C138.86 209.085 138.582 209.024 138.309 208.902C138.039 208.78 137.815 208.594 137.636 208.344C137.46 208.094 137.371 207.778 137.371 207.398V200.886ZM143.876 209.136C143.286 209.136 142.767 208.996 142.321 208.714C141.878 208.433 141.531 208.04 141.281 207.534C141.034 207.028 140.911 206.437 140.911 205.761C140.911 205.08 141.034 204.484 141.281 203.976C141.531 203.467 141.878 203.072 142.321 202.791C142.767 202.51 143.286 202.369 143.876 202.369C144.467 202.369 144.984 202.51 145.428 202.791C145.874 203.072 146.22 203.467 146.467 203.976C146.717 204.484 146.842 205.08 146.842 205.761C146.842 206.437 146.717 207.028 146.467 207.534C146.22 208.04 145.874 208.433 145.428 208.714C144.984 208.996 144.467 209.136 143.876 209.136ZM143.876 208.233C144.325 208.233 144.695 208.118 144.984 207.888C145.274 207.658 145.489 207.355 145.628 206.98C145.767 206.605 145.837 206.199 145.837 205.761C145.837 205.324 145.767 204.916 145.628 204.538C145.489 204.161 145.274 203.855 144.984 203.622C144.695 203.389 144.325 203.273 143.876 203.273C143.428 203.273 143.058 203.389 142.768 203.622C142.479 203.855 142.264 204.161 142.125 204.538C141.986 204.916 141.916 205.324 141.916 205.761C141.916 206.199 141.986 206.605 142.125 206.98C142.264 207.355 142.479 207.658 142.768 207.888C143.058 208.118 143.428 208.233 143.876 208.233ZM148.735 205.318C148.735 204.244 148.875 203.257 149.153 202.357C149.434 201.453 149.835 200.622 150.355 199.864H151.241C151.037 200.145 150.845 200.491 150.666 200.903C150.49 201.312 150.335 201.763 150.201 202.254C150.068 202.743 149.963 203.249 149.886 203.771C149.812 204.294 149.775 204.81 149.775 205.318C149.775 205.994 149.841 206.68 149.971 207.376C150.102 208.072 150.278 208.719 150.5 209.315C150.721 209.912 150.968 210.398 151.241 210.773H150.355C149.835 210.014 149.434 209.185 149.153 208.284C148.875 207.381 148.735 206.392 148.735 205.318Z" fill="black"/>
</svg>
